<svg xmlns="http://www.w3.org/2000/svg" width="2100" height="2100" viewBox="0 0 2100 2100"><rect width="2100" height="2100" fill="#005948"/><path d="M618.11,1105.81q0-227.61-.15-455.22c0-5.8,1.75-8.91,6.88-11.77,61.76-34.46,123.81-68.48,188.3-97.63a781.82,781.82,0,0,1,131-45.54,648.81,648.81,0,0,1,147.47-19.95c74.8-1.41,146.58,12.48,217.24,35.5,55.38,18,107.6,42.72,158.84,69.65,36.66,19.26,72.72,39.62,109.19,59.23,4.92,2.64,5.11,6.27,5.11,10.73q-.06,88.25,0,176.48,0,80.31,0,160.62c0,10.08,0,10.09-9.83,10.09q-157.44,0-314.9.15c-6.7,0-8.71-1.76-8.66-8.43q.45-57.26,0-114.52c0-3.24-2.06-8.08-4.63-9.44-31.56-16.55-63.66-32-99-39.25-49.54-10.14-97.11-2.83-143,16.83-14.68,6.29-28.86,13.73-43.32,20.54-5.36,2.53-7.69,6.12-7.64,12.38q.45,57.27,0,114.53c-.05,6.7,2.59,10,8.57,12.21q171.2,63.24,342.31,126.64c21.37,7.91,42.69,16,64.11,23.74,4.1,1.49,5.48,3.71,5.47,7.95q-.15,139,0,278c0,4.33-1.61,6.47-5.55,8-58.91,22.39-117.58,45.68-179.63,58.43-48.86,10-98.15,12-147.71,4.27-52.11-8.12-101.87-24.12-151-42.49-17.7-6.63-35.31-13.5-53-20-4.43-1.64-6.39-3.82-6.38-8.85q.25-114.54,0-229.06c0-5.92,2.09-7.27,7.64-7.24,35.48.19,70.95.25,106.43-.06,6.92-.06,9.14,1.8,9.09,8.84-.29,48-.05,96-.27,144.06,0,6.19,2.44,9.44,8.06,11,27.37,7.43,54.47,16.06,82.16,22,43.08,9.19,86.52,7.63,129.35-2.23,23.83-5.48,47.17-13,70.69-19.82,5.09-1.47,7.7-4.74,7.67-10.65q-.32-53.65.11-107.32c.07-7.22-2.66-10.68-9.37-13.16q-202.26-74.76-404.44-149.72c-5.64-2.08-7.11-4.91-7.1-10.51.16-89.31.07-178.63.27-268,0-3.08,1.45-7.77,3.72-9,39-20.93,77.83-42.34,117.63-61.74,30.31-14.78,62.78-24,96.25-29.81a309.05,309.05,0,0,1,105-.46c55.25,9.36,106.14,30.27,154.92,56.75,19.57,10.62,38.7,22.06,58.22,32.77,5.34,2.92,7.48,6.35,7.36,12.48-.41,19.92,0,39.85-.32,59.78-.09,6.49,2.43,9.08,9,9,23.32-.15,46.65-.06,70,0,6,0,8.79-2.42,8.78-8.63q-.15-74.19.08-148.38c0-6-3.46-8.62-7.83-10.89q-35.1-18.32-70.27-36.47c-37.05-19.18-74.85-37-114.94-48.75-31.55-9.25-63.86-16.37-96.22-22.38-39.36-7.3-79.44-6.76-119.09-2.92-45,4.35-88.74,15.21-131.58,30.13C859.45,649.09,804,678.12,749,708.26c-6,3.28-8.24,7.34-8.23,14.33q.27,379.59-.05,759.19c0,7.82,2.8,11.77,9.7,14.64,61.51,25.64,122.4,52.85,184.6,76.72a462.35,462.35,0,0,0,123,28.34c48.36,4.5,96.26,1.66,143.24-9.72a743.92,743.92,0,0,0,121.89-40.93q62.3-27.12,124.86-53.7c7.78-3.31,11.27-7.54,11.22-16.7-.44-90.26-.25-180.53-.44-270.8,0-5.76,1.76-7.32,7.47-7.29,35.72.22,71.44.26,107.15-.06,6.87-.06,8.63,2.26,8.62,8.69q-.21,175.76,0,351.51c0,5-1.59,7.69-6.38,9.78-90.64,39.46-180.14,81.64-273.34,115.09-36.24,13-73.8,22-111.89,29a507.55,507.55,0,0,1-138.61,5.82c-52.12-4.89-102.71-17.44-152.33-34.12-58-19.52-113.57-44.91-169.56-69.26C695,1603.56,660.31,1588,625.36,1573c-5.48-2.37-7.4-5.2-7.39-11.21Q618.25,1333.79,618.11,1105.81Z" transform="translate(-50 -50)" fill="#fff"/></svg>
